<mxfile host="65bd71144e">
    <diagram id="4Cfzrlh4ryToqalkVrY9" name="Page-1">
        <mxGraphModel dx="1161" dy="792" grid="1" gridSize="10" guides="1" tooltips="1" connect="1" arrows="1" fold="1" page="1" pageScale="1" pageWidth="3300" pageHeight="4681" math="0" shadow="0">
            <root>
                <mxCell id="0"/>
                <mxCell id="1" parent="0"/>
                <mxCell id="16" style="edgeStyle=none;html=1;entryX=0.5;entryY=0;entryDx=0;entryDy=0;entryPerimeter=0;fontFamily=Helvetica;fontSize=12;fontColor=default;" edge="1" parent="1" source="2" target="8">
                    <mxGeometry relative="1" as="geometry"/>
                </mxCell>
                <mxCell id="2" value="开始" style="strokeWidth=2;html=1;shape=mxgraph.flowchart.terminator;whiteSpace=wrap;" vertex="1" parent="1">
                    <mxGeometry x="470" y="60" width="100" height="60" as="geometry"/>
                </mxCell>
                <mxCell id="48" style="edgeStyle=none;html=1;entryX=0.5;entryY=0;entryDx=0;entryDy=0;entryPerimeter=0;fontFamily=Helvetica;fontSize=12;fontColor=default;" edge="1" parent="1" source="4" target="43">
                    <mxGeometry relative="1" as="geometry"/>
                </mxCell>
                <mxCell id="4" value="修改函数代码" style="rounded=1;whiteSpace=wrap;html=1;absoluteArcSize=1;arcSize=14;strokeWidth=2;" vertex="1" parent="1">
                    <mxGeometry x="710" y="360" width="130" height="60" as="geometry"/>
                </mxCell>
                <mxCell id="8" value="新增函数" style="strokeWidth=2;html=1;shape=mxgraph.flowchart.decision;whiteSpace=wrap;rounded=1;strokeColor=default;fontFamily=Helvetica;fontSize=12;fontColor=default;fillColor=default;" vertex="1" parent="1">
                    <mxGeometry x="445" y="170" width="150" height="100" as="geometry"/>
                </mxCell>
                <mxCell id="9" value="修改函数" style="strokeWidth=2;html=1;shape=mxgraph.flowchart.decision;whiteSpace=wrap;rounded=1;strokeColor=default;fontFamily=Helvetica;fontSize=12;fontColor=default;fillColor=default;" vertex="1" parent="1">
                    <mxGeometry x="445" y="340" width="150" height="100" as="geometry"/>
                </mxCell>
                <mxCell id="29" style="edgeStyle=none;html=1;entryX=0.5;entryY=0;entryDx=0;entryDy=0;fontFamily=Helvetica;fontSize=12;fontColor=default;" edge="1" parent="1" source="10" target="4">
                    <mxGeometry relative="1" as="geometry"/>
                </mxCell>
                <mxCell id="10" value="新增函数文件" style="rounded=1;whiteSpace=wrap;html=1;absoluteArcSize=1;arcSize=14;strokeWidth=2;strokeColor=default;fontFamily=Helvetica;fontSize=12;fontColor=default;fillColor=default;" vertex="1" parent="1">
                    <mxGeometry x="710" y="190" width="130" height="60" as="geometry"/>
                </mxCell>
                <mxCell id="11" value="删除函数" style="strokeWidth=2;html=1;shape=mxgraph.flowchart.decision;whiteSpace=wrap;rounded=1;strokeColor=default;fontFamily=Helvetica;fontSize=12;fontColor=default;fillColor=default;" vertex="1" parent="1">
                    <mxGeometry x="445" y="640" width="150" height="100" as="geometry"/>
                </mxCell>
                <mxCell id="14" value="" style="endArrow=classic;html=1;fontFamily=Helvetica;fontSize=12;fontColor=default;exitX=1;exitY=0.5;exitDx=0;exitDy=0;exitPerimeter=0;entryX=0;entryY=0.5;entryDx=0;entryDy=0;" edge="1" parent="1" source="8" target="10">
                    <mxGeometry relative="1" as="geometry">
                        <mxPoint x="600" y="170" as="sourcePoint"/>
                        <mxPoint x="700" y="170" as="targetPoint"/>
                    </mxGeometry>
                </mxCell>
                <mxCell id="15" value="是" style="edgeLabel;resizable=0;html=1;align=center;verticalAlign=middle;rounded=1;strokeColor=default;strokeWidth=2;fontFamily=Helvetica;fontSize=12;fontColor=default;fillColor=default;" connectable="0" vertex="1" parent="14">
                    <mxGeometry relative="1" as="geometry"/>
                </mxCell>
                <mxCell id="17" value="" style="endArrow=classic;html=1;fontFamily=Helvetica;fontSize=12;fontColor=default;exitX=0.5;exitY=1;exitDx=0;exitDy=0;exitPerimeter=0;entryX=0.5;entryY=0;entryDx=0;entryDy=0;entryPerimeter=0;" edge="1" parent="1" source="8" target="9">
                    <mxGeometry relative="1" as="geometry">
                        <mxPoint x="330" y="280" as="sourcePoint"/>
                        <mxPoint x="430" y="280" as="targetPoint"/>
                    </mxGeometry>
                </mxCell>
                <mxCell id="18" value="否" style="edgeLabel;resizable=0;html=1;align=center;verticalAlign=middle;rounded=1;strokeColor=default;strokeWidth=2;fontFamily=Helvetica;fontSize=12;fontColor=default;fillColor=default;" connectable="0" vertex="1" parent="17">
                    <mxGeometry relative="1" as="geometry"/>
                </mxCell>
                <mxCell id="19" value="" style="endArrow=classic;html=1;fontFamily=Helvetica;fontSize=12;fontColor=default;exitX=1;exitY=0.5;exitDx=0;exitDy=0;exitPerimeter=0;entryX=0;entryY=0.5;entryDx=0;entryDy=0;" edge="1" parent="1" source="9" target="4">
                    <mxGeometry relative="1" as="geometry">
                        <mxPoint x="620" y="320" as="sourcePoint"/>
                        <mxPoint x="720" y="320" as="targetPoint"/>
                    </mxGeometry>
                </mxCell>
                <mxCell id="20" value="是" style="edgeLabel;resizable=0;html=1;align=center;verticalAlign=middle;rounded=1;strokeColor=default;strokeWidth=2;fontFamily=Helvetica;fontSize=12;fontColor=default;fillColor=default;" connectable="0" vertex="1" parent="19">
                    <mxGeometry relative="1" as="geometry"/>
                </mxCell>
                <mxCell id="21" value="" style="endArrow=classic;html=1;fontFamily=Helvetica;fontSize=12;fontColor=default;exitX=0.5;exitY=1;exitDx=0;exitDy=0;exitPerimeter=0;entryX=0.5;entryY=0;entryDx=0;entryDy=0;entryPerimeter=0;" edge="1" parent="1" source="9" target="11">
                    <mxGeometry relative="1" as="geometry">
                        <mxPoint x="220" y="470" as="sourcePoint"/>
                        <mxPoint x="320" y="470" as="targetPoint"/>
                    </mxGeometry>
                </mxCell>
                <mxCell id="22" value="否" style="edgeLabel;resizable=0;html=1;align=center;verticalAlign=middle;rounded=1;strokeColor=default;strokeWidth=2;fontFamily=Helvetica;fontSize=12;fontColor=default;fillColor=default;" connectable="0" vertex="1" parent="21">
                    <mxGeometry relative="1" as="geometry"/>
                </mxCell>
                <mxCell id="51" style="edgeStyle=none;html=1;entryX=0.5;entryY=0;entryDx=0;entryDy=0;fontFamily=Helvetica;fontSize=12;fontColor=default;" edge="1" parent="1" source="23" target="32">
                    <mxGeometry relative="1" as="geometry"/>
                </mxCell>
                <mxCell id="23" value="修改p_link中lib的资料" style="rounded=1;whiteSpace=wrap;html=1;absoluteArcSize=1;arcSize=14;strokeWidth=2;strokeColor=default;fontFamily=Helvetica;fontSize=12;fontColor=default;fillColor=default;" vertex="1" parent="1">
                    <mxGeometry x="710" y="660" width="130" height="60" as="geometry"/>
                </mxCell>
                <mxCell id="24" value="" style="endArrow=classic;html=1;fontFamily=Helvetica;fontSize=12;fontColor=default;entryX=0;entryY=0.5;entryDx=0;entryDy=0;exitX=1;exitY=0.5;exitDx=0;exitDy=0;exitPerimeter=0;" edge="1" parent="1" source="11" target="23">
                    <mxGeometry relative="1" as="geometry">
                        <mxPoint x="250" y="490" as="sourcePoint"/>
                        <mxPoint x="350" y="490" as="targetPoint"/>
                        <Array as="points"/>
                    </mxGeometry>
                </mxCell>
                <mxCell id="25" value="是" style="edgeLabel;resizable=0;html=1;align=center;verticalAlign=middle;rounded=1;strokeColor=default;strokeWidth=2;fontFamily=Helvetica;fontSize=12;fontColor=default;fillColor=default;" connectable="0" vertex="1" parent="24">
                    <mxGeometry relative="1" as="geometry"/>
                </mxCell>
                <mxCell id="28" value="结束" style="strokeWidth=2;html=1;shape=mxgraph.flowchart.terminator;whiteSpace=wrap;rounded=1;strokeColor=default;fontFamily=Helvetica;fontSize=12;fontColor=default;fillColor=default;" vertex="1" parent="1">
                    <mxGeometry x="470" y="1069" width="100" height="60" as="geometry"/>
                </mxCell>
                <mxCell id="50" style="edgeStyle=none;html=1;entryX=0.5;entryY=0;entryDx=0;entryDy=0;entryPerimeter=0;fontFamily=Helvetica;fontSize=12;fontColor=default;" edge="1" parent="1" source="31" target="33">
                    <mxGeometry relative="1" as="geometry"/>
                </mxCell>
                <mxCell id="31" value="链接用到函数的主程序" style="rounded=1;whiteSpace=wrap;html=1;absoluteArcSize=1;arcSize=14;strokeWidth=2;strokeColor=default;fontFamily=Helvetica;fontSize=12;fontColor=default;fillColor=default;" vertex="1" parent="1">
                    <mxGeometry x="455" y="800" width="130" height="60" as="geometry"/>
                </mxCell>
                <mxCell id="49" style="edgeStyle=none;html=1;entryX=1;entryY=0.5;entryDx=0;entryDy=0;fontFamily=Helvetica;fontSize=12;fontColor=default;" edge="1" parent="1" source="32" target="31">
                    <mxGeometry relative="1" as="geometry"/>
                </mxCell>
                <mxCell id="32" value="r.l2 lib" style="rounded=1;whiteSpace=wrap;html=1;absoluteArcSize=1;arcSize=14;strokeWidth=2;strokeColor=default;fontFamily=Helvetica;fontSize=12;fontColor=default;fillColor=default;" vertex="1" parent="1">
                    <mxGeometry x="709" y="800" width="130" height="60" as="geometry"/>
                </mxCell>
                <mxCell id="33" value="运行测试成功否" style="strokeWidth=2;html=1;shape=mxgraph.flowchart.decision;whiteSpace=wrap;rounded=1;strokeColor=default;fontFamily=Helvetica;fontSize=12;fontColor=default;fillColor=default;" vertex="1" parent="1">
                    <mxGeometry x="445" y="920" width="150" height="100" as="geometry"/>
                </mxCell>
                <mxCell id="34" value="" style="endArrow=classic;html=1;fontFamily=Helvetica;fontSize=12;fontColor=default;exitX=0.5;exitY=1;exitDx=0;exitDy=0;exitPerimeter=0;entryX=0.5;entryY=0;entryDx=0;entryDy=0;entryPerimeter=0;" edge="1" parent="1" source="33" target="28">
                    <mxGeometry relative="1" as="geometry">
                        <mxPoint x="630" y="900" as="sourcePoint"/>
                        <mxPoint x="730" y="900" as="targetPoint"/>
                    </mxGeometry>
                </mxCell>
                <mxCell id="35" value="是" style="edgeLabel;resizable=0;html=1;align=center;verticalAlign=middle;rounded=1;strokeColor=default;strokeWidth=2;fontFamily=Helvetica;fontSize=12;fontColor=default;fillColor=default;" connectable="0" vertex="1" parent="34">
                    <mxGeometry relative="1" as="geometry"/>
                </mxCell>
                <mxCell id="36" value="" style="endArrow=classic;html=1;fontFamily=Helvetica;fontSize=12;fontColor=default;exitX=1;exitY=0.5;exitDx=0;exitDy=0;exitPerimeter=0;entryX=0.5;entryY=0;entryDx=0;entryDy=0;" edge="1" parent="1" source="33" target="4">
                    <mxGeometry relative="1" as="geometry">
                        <mxPoint x="290" y="780" as="sourcePoint"/>
                        <mxPoint x="780" y="330" as="targetPoint"/>
                        <Array as="points">
                            <mxPoint x="940" y="970"/>
                            <mxPoint x="940" y="330"/>
                            <mxPoint x="775" y="330"/>
                        </Array>
                    </mxGeometry>
                </mxCell>
                <mxCell id="37" value="否" style="edgeLabel;resizable=0;html=1;align=center;verticalAlign=middle;rounded=1;strokeColor=default;strokeWidth=2;fontFamily=Helvetica;fontSize=12;fontColor=default;fillColor=default;" connectable="0" vertex="1" parent="36">
                    <mxGeometry relative="1" as="geometry"/>
                </mxCell>
                <mxCell id="43" value="p_link是否已有资料" style="strokeWidth=2;html=1;shape=mxgraph.flowchart.decision;whiteSpace=wrap;rounded=1;strokeColor=default;fontFamily=Helvetica;fontSize=12;fontColor=default;fillColor=default;" vertex="1" parent="1">
                    <mxGeometry x="700" y="480" width="150" height="100" as="geometry"/>
                </mxCell>
                <mxCell id="44" value="" style="endArrow=classic;html=1;fontFamily=Helvetica;fontSize=12;fontColor=default;exitX=1;exitY=0.5;exitDx=0;exitDy=0;exitPerimeter=0;entryX=1;entryY=0.5;entryDx=0;entryDy=0;" edge="1" parent="1" source="43" target="32">
                    <mxGeometry relative="1" as="geometry">
                        <mxPoint x="790" y="600" as="sourcePoint"/>
                        <mxPoint x="890" y="600" as="targetPoint"/>
                        <Array as="points">
                            <mxPoint x="880" y="530"/>
                            <mxPoint x="880" y="800"/>
                            <mxPoint x="880" y="830"/>
                        </Array>
                    </mxGeometry>
                </mxCell>
                <mxCell id="45" value="是" style="edgeLabel;resizable=0;html=1;align=center;verticalAlign=middle;rounded=1;strokeColor=default;strokeWidth=2;fontFamily=Helvetica;fontSize=12;fontColor=default;fillColor=default;" connectable="0" vertex="1" parent="44">
                    <mxGeometry relative="1" as="geometry"/>
                </mxCell>
                <mxCell id="46" value="" style="endArrow=classic;html=1;fontFamily=Helvetica;fontSize=12;fontColor=default;exitX=0.5;exitY=1;exitDx=0;exitDy=0;exitPerimeter=0;entryX=0.5;entryY=0;entryDx=0;entryDy=0;" edge="1" parent="1" source="43" target="23">
                    <mxGeometry relative="1" as="geometry">
                        <mxPoint x="640" y="590" as="sourcePoint"/>
                        <mxPoint x="740" y="590" as="targetPoint"/>
                    </mxGeometry>
                </mxCell>
                <mxCell id="47" value="否" style="edgeLabel;resizable=0;html=1;align=center;verticalAlign=middle;rounded=1;strokeColor=default;strokeWidth=2;fontFamily=Helvetica;fontSize=12;fontColor=default;fillColor=default;" connectable="0" vertex="1" parent="46">
                    <mxGeometry relative="1" as="geometry"/>
                </mxCell>
            </root>
        </mxGraphModel>
    </diagram>
</mxfile>